<mxfile host="app.diagrams.net" agent="Mozilla/5.0 (Windows NT 10.0; Win64; x64) AppleWebKit/537.36 (KHTML, like Gecko) Chrome/130.0.0.0 Safari/537.36" version="24.8.0">
  <diagram id="R2lEEEUBdFMjLlhIrx00" name="Page-1">
    <mxGraphModel dx="1434" dy="738" grid="1" gridSize="10" guides="1" tooltips="1" connect="1" arrows="1" fold="1" page="1" pageScale="1" pageWidth="850" pageHeight="1100" math="0" shadow="0" extFonts="Permanent Marker^https://fonts.googleapis.com/css?family=Permanent+Marker">
      <root>
        <mxCell id="0" />
        <mxCell id="1" parent="0" />
        <mxCell id="W0P34Y67IvmdPy3ASIyA-1" value="Order" style="rounded=0;whiteSpace=wrap;html=1;" vertex="1" parent="1">
          <mxGeometry x="390" y="40" width="120" height="60" as="geometry" />
        </mxCell>
        <mxCell id="W0P34Y67IvmdPy3ASIyA-2" value="OrderItem" style="rounded=0;whiteSpace=wrap;html=1;" vertex="1" parent="1">
          <mxGeometry x="60" y="360" width="120" height="60" as="geometry" />
        </mxCell>
        <mxCell id="W0P34Y67IvmdPy3ASIyA-3" value="User" style="rounded=0;whiteSpace=wrap;html=1;" vertex="1" parent="1">
          <mxGeometry x="950" y="50" width="120" height="60" as="geometry" />
        </mxCell>
        <mxCell id="W0P34Y67IvmdPy3ASIyA-4" value="ProductIngredient" style="rounded=0;whiteSpace=wrap;html=1;" vertex="1" parent="1">
          <mxGeometry x="495" y="630" width="120" height="60" as="geometry" />
        </mxCell>
        <mxCell id="W0P34Y67IvmdPy3ASIyA-5" value="Product" style="rounded=0;whiteSpace=wrap;html=1;" vertex="1" parent="1">
          <mxGeometry x="490" y="360" width="120" height="60" as="geometry" />
        </mxCell>
        <mxCell id="W0P34Y67IvmdPy3ASIyA-6" value="Ingredient" style="rounded=0;whiteSpace=wrap;html=1;" vertex="1" parent="1">
          <mxGeometry x="850" y="630" width="120" height="60" as="geometry" />
        </mxCell>
        <mxCell id="W0P34Y67IvmdPy3ASIyA-7" value="OrderPlaced" style="ellipse;whiteSpace=wrap;html=1;" vertex="1" parent="1">
          <mxGeometry x="180" y="140" width="80" height="50" as="geometry" />
        </mxCell>
        <mxCell id="W0P34Y67IvmdPy3ASIyA-8" value="TotalPrice" style="ellipse;whiteSpace=wrap;html=1;" vertex="1" parent="1">
          <mxGeometry x="580" y="150" width="80" height="50" as="geometry" />
        </mxCell>
        <mxCell id="W0P34Y67IvmdPy3ASIyA-9" value="Discount" style="ellipse;whiteSpace=wrap;html=1;" vertex="1" parent="1">
          <mxGeometry x="620" y="100" width="80" height="50" as="geometry" />
        </mxCell>
        <mxCell id="W0P34Y67IvmdPy3ASIyA-11" value="Status" style="ellipse;whiteSpace=wrap;html=1;" vertex="1" parent="1">
          <mxGeometry x="150" y="80" width="80" height="50" as="geometry" />
        </mxCell>
        <mxCell id="W0P34Y67IvmdPy3ASIyA-12" value="OrderShipped" style="ellipse;whiteSpace=wrap;html=1;" vertex="1" parent="1">
          <mxGeometry x="320" y="190" width="80" height="50" as="geometry" />
        </mxCell>
        <mxCell id="W0P34Y67IvmdPy3ASIyA-13" value="OrderReceived" style="ellipse;whiteSpace=wrap;html=1;" vertex="1" parent="1">
          <mxGeometry x="407.5" y="190" width="85" height="50" as="geometry" />
        </mxCell>
        <mxCell id="W0P34Y67IvmdPy3ASIyA-14" value="OrderPaid" style="ellipse;whiteSpace=wrap;html=1;" vertex="1" parent="1">
          <mxGeometry x="240" y="180" width="80" height="50" as="geometry" />
        </mxCell>
        <mxCell id="W0P34Y67IvmdPy3ASIyA-15" value="&lt;u&gt;Id&lt;/u&gt;" style="ellipse;whiteSpace=wrap;html=1;" vertex="1" parent="1">
          <mxGeometry x="150" y="10" width="80" height="50" as="geometry" />
        </mxCell>
        <mxCell id="W0P34Y67IvmdPy3ASIyA-16" value="OrderRefunded" style="ellipse;whiteSpace=wrap;html=1;" vertex="1" parent="1">
          <mxGeometry x="500" y="180" width="90" height="50" as="geometry" />
        </mxCell>
        <mxCell id="W0P34Y67IvmdPy3ASIyA-17" value="&lt;u&gt;Id&lt;/u&gt;" style="ellipse;whiteSpace=wrap;html=1;" vertex="1" parent="1">
          <mxGeometry x="830" y="80" width="80" height="50" as="geometry" />
        </mxCell>
        <mxCell id="W0P34Y67IvmdPy3ASIyA-18" value="EmailAddress" style="ellipse;whiteSpace=wrap;html=1;" vertex="1" parent="1">
          <mxGeometry x="890" y="130" width="80" height="50" as="geometry" />
        </mxCell>
        <mxCell id="W0P34Y67IvmdPy3ASIyA-19" value="PasswordHash" style="ellipse;whiteSpace=wrap;html=1;" vertex="1" parent="1">
          <mxGeometry x="970" y="160" width="90" height="50" as="geometry" />
        </mxCell>
        <mxCell id="W0P34Y67IvmdPy3ASIyA-20" value="LastSeen" style="ellipse;whiteSpace=wrap;html=1;" vertex="1" parent="1">
          <mxGeometry x="1070" y="140" width="80" height="50" as="geometry" />
        </mxCell>
        <mxCell id="W0P34Y67IvmdPy3ASIyA-21" value="Registered" style="ellipse;whiteSpace=wrap;html=1;" vertex="1" parent="1">
          <mxGeometry x="1090" y="80" width="80" height="50" as="geometry" />
        </mxCell>
        <mxCell id="W0P34Y67IvmdPy3ASIyA-22" value="Role" style="ellipse;whiteSpace=wrap;html=1;" vertex="1" parent="1">
          <mxGeometry x="1110" y="20" width="80" height="50" as="geometry" />
        </mxCell>
        <mxCell id="W0P34Y67IvmdPy3ASIyA-24" value="Price" style="ellipse;whiteSpace=wrap;html=1;" vertex="1" parent="1">
          <mxGeometry x="90" y="445" width="80" height="50" as="geometry" />
        </mxCell>
        <mxCell id="W0P34Y67IvmdPy3ASIyA-25" value="Quantity" style="ellipse;whiteSpace=wrap;html=1;" vertex="1" parent="1">
          <mxGeometry x="185" y="445" width="80" height="50" as="geometry" />
        </mxCell>
        <mxCell id="W0P34Y67IvmdPy3ASIyA-27" value="&lt;u&gt;Id&lt;/u&gt;" style="ellipse;whiteSpace=wrap;html=1;" vertex="1" parent="1">
          <mxGeometry x="390" y="410" width="80" height="50" as="geometry" />
        </mxCell>
        <mxCell id="W0P34Y67IvmdPy3ASIyA-28" value="&lt;u&gt;Id&lt;/u&gt;" style="ellipse;whiteSpace=wrap;html=1;" vertex="1" parent="1">
          <mxGeometry x="780" y="690" width="80" height="50" as="geometry" />
        </mxCell>
        <mxCell id="W0P34Y67IvmdPy3ASIyA-29" value="Quantity" style="ellipse;whiteSpace=wrap;html=1;" vertex="1" parent="1">
          <mxGeometry x="520" y="720" width="80" height="50" as="geometry" />
        </mxCell>
        <mxCell id="W0P34Y67IvmdPy3ASIyA-30" value="Name" style="ellipse;whiteSpace=wrap;html=1;" vertex="1" parent="1">
          <mxGeometry x="470" y="445" width="80" height="50" as="geometry" />
        </mxCell>
        <mxCell id="W0P34Y67IvmdPy3ASIyA-31" value="Description" style="ellipse;whiteSpace=wrap;html=1;" vertex="1" parent="1">
          <mxGeometry x="570" y="440" width="80" height="50" as="geometry" />
        </mxCell>
        <mxCell id="W0P34Y67IvmdPy3ASIyA-32" value="Price" style="ellipse;whiteSpace=wrap;html=1;" vertex="1" parent="1">
          <mxGeometry x="660" y="430" width="80" height="50" as="geometry" />
        </mxCell>
        <mxCell id="W0P34Y67IvmdPy3ASIyA-33" value="ImageUrl" style="ellipse;whiteSpace=wrap;html=1;" vertex="1" parent="1">
          <mxGeometry x="675" y="370" width="80" height="50" as="geometry" />
        </mxCell>
        <mxCell id="W0P34Y67IvmdPy3ASIyA-34" value="Stock" style="ellipse;whiteSpace=wrap;html=1;" vertex="1" parent="1">
          <mxGeometry x="650" y="310" width="80" height="50" as="geometry" />
        </mxCell>
        <mxCell id="W0P34Y67IvmdPy3ASIyA-35" value="Reserved" style="ellipse;whiteSpace=wrap;html=1;" vertex="1" parent="1">
          <mxGeometry x="570" y="280" width="80" height="50" as="geometry" />
        </mxCell>
        <mxCell id="W0P34Y67IvmdPy3ASIyA-36" value="Name" style="ellipse;whiteSpace=wrap;html=1;" vertex="1" parent="1">
          <mxGeometry x="850" y="720" width="80" height="50" as="geometry" />
        </mxCell>
        <mxCell id="W0P34Y67IvmdPy3ASIyA-37" value="ImageUrl" style="ellipse;whiteSpace=wrap;html=1;" vertex="1" parent="1">
          <mxGeometry x="940" y="710" width="80" height="50" as="geometry" />
        </mxCell>
        <mxCell id="W0P34Y67IvmdPy3ASIyA-38" value="Stock" style="ellipse;whiteSpace=wrap;html=1;" vertex="1" parent="1">
          <mxGeometry x="990" y="660" width="80" height="50" as="geometry" />
        </mxCell>
        <mxCell id="W0P34Y67IvmdPy3ASIyA-39" value="MaxStock" style="ellipse;whiteSpace=wrap;html=1;" vertex="1" parent="1">
          <mxGeometry x="990" y="600" width="80" height="50" as="geometry" />
        </mxCell>
        <mxCell id="W0P34Y67IvmdPy3ASIyA-40" value="places" style="rhombus;whiteSpace=wrap;html=1;" vertex="1" parent="1">
          <mxGeometry x="715" y="30" width="90" height="80" as="geometry" />
        </mxCell>
        <mxCell id="W0P34Y67IvmdPy3ASIyA-41" value="contains&lt;span style=&quot;color: rgba(0, 0, 0, 0); font-family: monospace; font-size: 0px; text-align: start; text-wrap-mode: nowrap;&quot;&gt;%3CmxGraphModel%3E%3Croot%3E%3CmxCell%20id%3D%220%22%2F%3E%3CmxCell%20id%3D%221%22%20parent%3D%220%22%2F%3E%3CmxCell%20id%3D%222%22%20value%3D%22places%22%20style%3D%22rhombus%3BwhiteSpace%3Dwrap%3Bhtml%3D1%3B%22%20vertex%3D%221%22%20parent%3D%221%22%3E%3CmxGeometry%20x%3D%22680%22%20y%3D%22470%22%20width%3D%2290%22%20height%3D%2280%22%20as%3D%22geometry%22%2F%3E%3C%2FmxCell%3E%3C%2Froot%3E%3C%2FmxGraphModel%3E&lt;/span&gt;&lt;span style=&quot;color: rgba(0, 0, 0, 0); font-family: monospace; font-size: 0px; text-align: start; text-wrap-mode: nowrap;&quot;&gt;%3CmxGraphModel%3E%3Croot%3E%3CmxCell%20id%3D%220%22%2F%3E%3CmxCell%20id%3D%221%22%20parent%3D%220%22%2F%3E%3CmxCell%20id%3D%222%22%20value%3D%22places%22%20style%3D%22rhombus%3BwhiteSpace%3Dwrap%3Bhtml%3D1%3B%22%20vertex%3D%221%22%20parent%3D%221%22%3E%3CmxGeometry%20x%3D%22680%22%20y%3D%22470%22%20width%3D%2290%22%20height%3D%2280%22%20as%3D%22geometry%22%2F%3E%3C%2FmxCell%3E%3C%2Froot%3E%3C%2FmxGraphModel%3E&lt;/span&gt;" style="rhombus;whiteSpace=wrap;html=1;" vertex="1" parent="1">
          <mxGeometry x="75" y="200" width="90" height="80" as="geometry" />
        </mxCell>
        <mxCell id="W0P34Y67IvmdPy3ASIyA-42" value="refers to" style="rhombus;whiteSpace=wrap;html=1;" vertex="1" parent="1">
          <mxGeometry x="290" y="350" width="90" height="80" as="geometry" />
        </mxCell>
        <mxCell id="W0P34Y67IvmdPy3ASIyA-43" value="composed of" style="rhombus;whiteSpace=wrap;html=1;" vertex="1" parent="1">
          <mxGeometry x="510" y="520" width="90" height="80" as="geometry" />
        </mxCell>
        <mxCell id="W0P34Y67IvmdPy3ASIyA-44" value="used in" style="rhombus;whiteSpace=wrap;html=1;" vertex="1" parent="1">
          <mxGeometry x="690" y="620" width="90" height="80" as="geometry" />
        </mxCell>
        <mxCell id="W0P34Y67IvmdPy3ASIyA-45" value="" style="endArrow=none;html=1;rounded=0;entryX=0;entryY=0.5;entryDx=0;entryDy=0;exitX=1;exitY=0.5;exitDx=0;exitDy=0;" edge="1" parent="1" source="W0P34Y67IvmdPy3ASIyA-15" target="W0P34Y67IvmdPy3ASIyA-1">
          <mxGeometry width="50" height="50" relative="1" as="geometry">
            <mxPoint x="330" y="110" as="sourcePoint" />
            <mxPoint x="380" y="60" as="targetPoint" />
          </mxGeometry>
        </mxCell>
        <mxCell id="W0P34Y67IvmdPy3ASIyA-46" value="" style="endArrow=none;html=1;rounded=0;entryX=0;entryY=0.75;entryDx=0;entryDy=0;exitX=0.988;exitY=0.36;exitDx=0;exitDy=0;exitPerimeter=0;" edge="1" parent="1" source="W0P34Y67IvmdPy3ASIyA-11" target="W0P34Y67IvmdPy3ASIyA-1">
          <mxGeometry width="50" height="50" relative="1" as="geometry">
            <mxPoint x="220" y="67.5" as="sourcePoint" />
            <mxPoint x="390" y="92.5" as="targetPoint" />
          </mxGeometry>
        </mxCell>
        <mxCell id="W0P34Y67IvmdPy3ASIyA-47" value="" style="endArrow=none;html=1;rounded=0;entryX=0;entryY=1;entryDx=0;entryDy=0;exitX=1;exitY=0;exitDx=0;exitDy=0;" edge="1" parent="1" source="W0P34Y67IvmdPy3ASIyA-7" target="W0P34Y67IvmdPy3ASIyA-1">
          <mxGeometry width="50" height="50" relative="1" as="geometry">
            <mxPoint x="260" y="130" as="sourcePoint" />
            <mxPoint x="430" y="155" as="targetPoint" />
          </mxGeometry>
        </mxCell>
        <mxCell id="W0P34Y67IvmdPy3ASIyA-48" value="" style="endArrow=none;html=1;rounded=0;entryX=0.158;entryY=1;entryDx=0;entryDy=0;entryPerimeter=0;exitX=0.625;exitY=0.06;exitDx=0;exitDy=0;exitPerimeter=0;" edge="1" parent="1" source="W0P34Y67IvmdPy3ASIyA-14" target="W0P34Y67IvmdPy3ASIyA-1">
          <mxGeometry width="50" height="50" relative="1" as="geometry">
            <mxPoint x="300" y="177" as="sourcePoint" />
            <mxPoint x="412" y="130" as="targetPoint" />
          </mxGeometry>
        </mxCell>
        <mxCell id="W0P34Y67IvmdPy3ASIyA-49" value="" style="endArrow=none;html=1;rounded=0;entryX=0.392;entryY=1.017;entryDx=0;entryDy=0;exitX=0.675;exitY=0;exitDx=0;exitDy=0;entryPerimeter=0;exitPerimeter=0;" edge="1" parent="1" source="W0P34Y67IvmdPy3ASIyA-12" target="W0P34Y67IvmdPy3ASIyA-1">
          <mxGeometry width="50" height="50" relative="1" as="geometry">
            <mxPoint x="268" y="167" as="sourcePoint" />
            <mxPoint x="410" y="120" as="targetPoint" />
          </mxGeometry>
        </mxCell>
        <mxCell id="W0P34Y67IvmdPy3ASIyA-50" value="" style="endArrow=none;html=1;rounded=0;entryX=0.608;entryY=1.017;entryDx=0;entryDy=0;entryPerimeter=0;exitX=0.5;exitY=0;exitDx=0;exitDy=0;" edge="1" parent="1" source="W0P34Y67IvmdPy3ASIyA-13" target="W0P34Y67IvmdPy3ASIyA-1">
          <mxGeometry width="50" height="50" relative="1" as="geometry">
            <mxPoint x="442.5" y="170" as="sourcePoint" />
            <mxPoint x="492.5" y="120" as="targetPoint" />
          </mxGeometry>
        </mxCell>
        <mxCell id="W0P34Y67IvmdPy3ASIyA-51" value="" style="endArrow=none;html=1;rounded=0;entryX=0.75;entryY=1;entryDx=0;entryDy=0;exitX=0.333;exitY=0;exitDx=0;exitDy=0;exitPerimeter=0;" edge="1" parent="1" source="W0P34Y67IvmdPy3ASIyA-16" target="W0P34Y67IvmdPy3ASIyA-1">
          <mxGeometry width="50" height="50" relative="1" as="geometry">
            <mxPoint x="510" y="170" as="sourcePoint" />
            <mxPoint x="560" y="120" as="targetPoint" />
          </mxGeometry>
        </mxCell>
        <mxCell id="W0P34Y67IvmdPy3ASIyA-52" value="" style="endArrow=none;html=1;rounded=0;entryX=1;entryY=0.75;entryDx=0;entryDy=0;" edge="1" parent="1" source="W0P34Y67IvmdPy3ASIyA-8" target="W0P34Y67IvmdPy3ASIyA-1">
          <mxGeometry width="50" height="50" relative="1" as="geometry">
            <mxPoint x="550" y="150" as="sourcePoint" />
            <mxPoint x="600" y="100" as="targetPoint" />
          </mxGeometry>
        </mxCell>
        <mxCell id="W0P34Y67IvmdPy3ASIyA-53" value="" style="endArrow=none;html=1;rounded=0;exitX=0;exitY=0;exitDx=0;exitDy=0;entryX=1;entryY=0.617;entryDx=0;entryDy=0;entryPerimeter=0;" edge="1" parent="1" source="W0P34Y67IvmdPy3ASIyA-9" target="W0P34Y67IvmdPy3ASIyA-1">
          <mxGeometry width="50" height="50" relative="1" as="geometry">
            <mxPoint x="278" y="177" as="sourcePoint" />
            <mxPoint x="570" y="80" as="targetPoint" />
          </mxGeometry>
        </mxCell>
        <mxCell id="W0P34Y67IvmdPy3ASIyA-56" value="" style="endArrow=classic;html=1;rounded=0;entryX=1;entryY=0.5;entryDx=0;entryDy=0;exitX=0;exitY=0.5;exitDx=0;exitDy=0;" edge="1" parent="1" source="W0P34Y67IvmdPy3ASIyA-40" target="W0P34Y67IvmdPy3ASIyA-1">
          <mxGeometry width="50" height="50" relative="1" as="geometry">
            <mxPoint x="620" y="70" as="sourcePoint" />
            <mxPoint x="670" y="20" as="targetPoint" />
          </mxGeometry>
        </mxCell>
        <mxCell id="W0P34Y67IvmdPy3ASIyA-57" value="" style="endArrow=none;html=1;rounded=0;entryX=0.008;entryY=0.4;entryDx=0;entryDy=0;exitX=1;exitY=0.5;exitDx=0;exitDy=0;entryPerimeter=0;" edge="1" parent="1" source="W0P34Y67IvmdPy3ASIyA-40" target="W0P34Y67IvmdPy3ASIyA-3">
          <mxGeometry width="50" height="50" relative="1" as="geometry">
            <mxPoint x="840" y="60" as="sourcePoint" />
            <mxPoint x="890" y="10" as="targetPoint" />
          </mxGeometry>
        </mxCell>
        <mxCell id="W0P34Y67IvmdPy3ASIyA-61" value="" style="endArrow=none;html=1;rounded=0;entryX=0.583;entryY=1.005;entryDx=0;entryDy=0;entryPerimeter=0;exitX=0.425;exitY=-0.02;exitDx=0;exitDy=0;exitPerimeter=0;" edge="1" parent="1" source="W0P34Y67IvmdPy3ASIyA-24" target="W0P34Y67IvmdPy3ASIyA-96">
          <mxGeometry width="50" height="50" relative="1" as="geometry">
            <mxPoint x="120" y="470" as="sourcePoint" />
            <mxPoint x="170" y="420" as="targetPoint" />
          </mxGeometry>
        </mxCell>
        <mxCell id="W0P34Y67IvmdPy3ASIyA-62" value="" style="endArrow=none;html=1;rounded=0;exitX=0.338;exitY=0;exitDx=0;exitDy=0;exitPerimeter=0;entryX=1.001;entryY=0.934;entryDx=0;entryDy=0;entryPerimeter=0;" edge="1" parent="1" source="W0P34Y67IvmdPy3ASIyA-25" target="W0P34Y67IvmdPy3ASIyA-96">
          <mxGeometry width="50" height="50" relative="1" as="geometry">
            <mxPoint x="190" y="450" as="sourcePoint" />
            <mxPoint x="190" y="420" as="targetPoint" />
          </mxGeometry>
        </mxCell>
        <mxCell id="W0P34Y67IvmdPy3ASIyA-66" value="" style="endArrow=none;html=1;rounded=0;exitX=1;exitY=0.5;exitDx=0;exitDy=0;" edge="1" parent="1" source="W0P34Y67IvmdPy3ASIyA-96">
          <mxGeometry width="50" height="50" relative="1" as="geometry">
            <mxPoint x="390" y="390" as="sourcePoint" />
            <mxPoint x="290" y="390" as="targetPoint" />
            <Array as="points" />
          </mxGeometry>
        </mxCell>
        <mxCell id="W0P34Y67IvmdPy3ASIyA-69" value="" style="endArrow=classic;html=1;rounded=0;entryX=0.5;entryY=0;entryDx=0;entryDy=0;exitX=0.5;exitY=1;exitDx=0;exitDy=0;" edge="1" parent="1" source="W0P34Y67IvmdPy3ASIyA-43" target="W0P34Y67IvmdPy3ASIyA-97">
          <mxGeometry width="50" height="50" relative="1" as="geometry">
            <mxPoint x="430" y="620" as="sourcePoint" />
            <mxPoint x="480" y="570" as="targetPoint" />
          </mxGeometry>
        </mxCell>
        <mxCell id="W0P34Y67IvmdPy3ASIyA-70" value="" style="endArrow=none;html=1;rounded=0;exitX=0.5;exitY=0;exitDx=0;exitDy=0;entryX=0.583;entryY=1;entryDx=0;entryDy=0;entryPerimeter=0;" edge="1" parent="1" source="W0P34Y67IvmdPy3ASIyA-43" target="W0P34Y67IvmdPy3ASIyA-5">
          <mxGeometry width="50" height="50" relative="1" as="geometry">
            <mxPoint x="660" y="570" as="sourcePoint" />
            <mxPoint x="710" y="520" as="targetPoint" />
          </mxGeometry>
        </mxCell>
        <mxCell id="W0P34Y67IvmdPy3ASIyA-71" value="" style="endArrow=classic;html=1;rounded=0;entryX=1;entryY=0.5;entryDx=0;entryDy=0;exitX=0;exitY=0.5;exitDx=0;exitDy=0;" edge="1" parent="1" source="W0P34Y67IvmdPy3ASIyA-44" target="W0P34Y67IvmdPy3ASIyA-97">
          <mxGeometry width="50" height="50" relative="1" as="geometry">
            <mxPoint x="640" y="680" as="sourcePoint" />
            <mxPoint x="690" y="630" as="targetPoint" />
          </mxGeometry>
        </mxCell>
        <mxCell id="W0P34Y67IvmdPy3ASIyA-72" value="" style="endArrow=none;html=1;rounded=0;entryX=0;entryY=0.5;entryDx=0;entryDy=0;exitX=1;exitY=0.5;exitDx=0;exitDy=0;" edge="1" parent="1" source="W0P34Y67IvmdPy3ASIyA-44" target="W0P34Y67IvmdPy3ASIyA-6">
          <mxGeometry width="50" height="50" relative="1" as="geometry">
            <mxPoint x="800" y="680" as="sourcePoint" />
            <mxPoint x="850" y="630" as="targetPoint" />
          </mxGeometry>
        </mxCell>
        <mxCell id="W0P34Y67IvmdPy3ASIyA-73" value="" style="endArrow=none;html=1;rounded=0;entryX=0;entryY=0.75;entryDx=0;entryDy=0;exitX=1;exitY=0.5;exitDx=0;exitDy=0;" edge="1" parent="1" source="W0P34Y67IvmdPy3ASIyA-17" target="W0P34Y67IvmdPy3ASIyA-3">
          <mxGeometry width="50" height="50" relative="1" as="geometry">
            <mxPoint x="890" y="140" as="sourcePoint" />
            <mxPoint x="940" y="90" as="targetPoint" />
          </mxGeometry>
        </mxCell>
        <mxCell id="W0P34Y67IvmdPy3ASIyA-74" value="" style="endArrow=none;html=1;rounded=0;entryX=0.25;entryY=1;entryDx=0;entryDy=0;exitX=1;exitY=0;exitDx=0;exitDy=0;" edge="1" parent="1" source="W0P34Y67IvmdPy3ASIyA-18" target="W0P34Y67IvmdPy3ASIyA-3">
          <mxGeometry width="50" height="50" relative="1" as="geometry">
            <mxPoint x="990" y="160" as="sourcePoint" />
            <mxPoint x="1040" y="110" as="targetPoint" />
          </mxGeometry>
        </mxCell>
        <mxCell id="W0P34Y67IvmdPy3ASIyA-75" value="" style="endArrow=none;html=1;rounded=0;entryX=0.617;entryY=0.983;entryDx=0;entryDy=0;entryPerimeter=0;exitX=0.5;exitY=0;exitDx=0;exitDy=0;" edge="1" parent="1" source="W0P34Y67IvmdPy3ASIyA-19" target="W0P34Y67IvmdPy3ASIyA-3">
          <mxGeometry width="50" height="50" relative="1" as="geometry">
            <mxPoint x="990" y="170" as="sourcePoint" />
            <mxPoint x="1040" y="120" as="targetPoint" />
          </mxGeometry>
        </mxCell>
        <mxCell id="W0P34Y67IvmdPy3ASIyA-76" value="" style="endArrow=none;html=1;rounded=0;entryX=0.842;entryY=1;entryDx=0;entryDy=0;entryPerimeter=0;exitX=0;exitY=0;exitDx=0;exitDy=0;" edge="1" parent="1" source="W0P34Y67IvmdPy3ASIyA-20" target="W0P34Y67IvmdPy3ASIyA-3">
          <mxGeometry width="50" height="50" relative="1" as="geometry">
            <mxPoint x="1040" y="170" as="sourcePoint" />
            <mxPoint x="1090" y="120" as="targetPoint" />
          </mxGeometry>
        </mxCell>
        <mxCell id="W0P34Y67IvmdPy3ASIyA-77" value="" style="endArrow=none;html=1;rounded=0;exitX=1;exitY=0.25;exitDx=0;exitDy=0;" edge="1" parent="1" source="W0P34Y67IvmdPy3ASIyA-3" target="W0P34Y67IvmdPy3ASIyA-22">
          <mxGeometry width="50" height="50" relative="1" as="geometry">
            <mxPoint x="1060" y="60" as="sourcePoint" />
            <mxPoint x="1110" y="10" as="targetPoint" />
          </mxGeometry>
        </mxCell>
        <mxCell id="W0P34Y67IvmdPy3ASIyA-78" value="" style="endArrow=none;html=1;rounded=0;entryX=1;entryY=0.75;entryDx=0;entryDy=0;exitX=0;exitY=0.5;exitDx=0;exitDy=0;" edge="1" parent="1" source="W0P34Y67IvmdPy3ASIyA-21" target="W0P34Y67IvmdPy3ASIyA-3">
          <mxGeometry width="50" height="50" relative="1" as="geometry">
            <mxPoint x="1070" y="140" as="sourcePoint" />
            <mxPoint x="1120" y="90" as="targetPoint" />
          </mxGeometry>
        </mxCell>
        <mxCell id="W0P34Y67IvmdPy3ASIyA-79" value="" style="endArrow=none;html=1;rounded=0;exitX=0.5;exitY=0;exitDx=0;exitDy=0;" edge="1" parent="1" source="W0P34Y67IvmdPy3ASIyA-5" target="W0P34Y67IvmdPy3ASIyA-35">
          <mxGeometry width="50" height="50" relative="1" as="geometry">
            <mxPoint x="460" y="350" as="sourcePoint" />
            <mxPoint x="510" y="300" as="targetPoint" />
          </mxGeometry>
        </mxCell>
        <mxCell id="W0P34Y67IvmdPy3ASIyA-80" value="" style="endArrow=none;html=1;rounded=0;entryX=0;entryY=0.75;entryDx=0;entryDy=0;exitX=1;exitY=0;exitDx=0;exitDy=0;" edge="1" parent="1" source="W0P34Y67IvmdPy3ASIyA-27" target="W0P34Y67IvmdPy3ASIyA-5">
          <mxGeometry width="50" height="50" relative="1" as="geometry">
            <mxPoint x="440" y="450" as="sourcePoint" />
            <mxPoint x="490" y="400" as="targetPoint" />
          </mxGeometry>
        </mxCell>
        <mxCell id="W0P34Y67IvmdPy3ASIyA-81" value="" style="endArrow=none;html=1;rounded=0;exitX=0.5;exitY=0;exitDx=0;exitDy=0;" edge="1" parent="1" source="W0P34Y67IvmdPy3ASIyA-30">
          <mxGeometry width="50" height="50" relative="1" as="geometry">
            <mxPoint x="440" y="480" as="sourcePoint" />
            <mxPoint x="511" y="420" as="targetPoint" />
          </mxGeometry>
        </mxCell>
        <mxCell id="W0P34Y67IvmdPy3ASIyA-82" value="" style="endArrow=none;html=1;rounded=0;entryX=0.85;entryY=1;entryDx=0;entryDy=0;entryPerimeter=0;exitX=0.5;exitY=0;exitDx=0;exitDy=0;exitPerimeter=0;" edge="1" parent="1" source="W0P34Y67IvmdPy3ASIyA-31" target="W0P34Y67IvmdPy3ASIyA-5">
          <mxGeometry width="50" height="50" relative="1" as="geometry">
            <mxPoint x="600" y="470" as="sourcePoint" />
            <mxPoint x="650" y="420" as="targetPoint" />
          </mxGeometry>
        </mxCell>
        <mxCell id="W0P34Y67IvmdPy3ASIyA-83" value="" style="endArrow=none;html=1;rounded=0;entryX=0;entryY=1;entryDx=0;entryDy=0;exitX=1;exitY=0.25;exitDx=0;exitDy=0;" edge="1" parent="1" source="W0P34Y67IvmdPy3ASIyA-5" target="W0P34Y67IvmdPy3ASIyA-34">
          <mxGeometry width="50" height="50" relative="1" as="geometry">
            <mxPoint x="610" y="430" as="sourcePoint" />
            <mxPoint x="660" y="380" as="targetPoint" />
          </mxGeometry>
        </mxCell>
        <mxCell id="W0P34Y67IvmdPy3ASIyA-84" value="" style="endArrow=none;html=1;rounded=0;exitX=1;exitY=0.5;exitDx=0;exitDy=0;entryX=0;entryY=0.5;entryDx=0;entryDy=0;" edge="1" parent="1" source="W0P34Y67IvmdPy3ASIyA-5" target="W0P34Y67IvmdPy3ASIyA-33">
          <mxGeometry width="50" height="50" relative="1" as="geometry">
            <mxPoint x="610" y="440" as="sourcePoint" />
            <mxPoint x="680.7106781186548" y="390" as="targetPoint" />
          </mxGeometry>
        </mxCell>
        <mxCell id="W0P34Y67IvmdPy3ASIyA-85" value="" style="endArrow=none;html=1;rounded=0;exitX=1;exitY=0.75;exitDx=0;exitDy=0;" edge="1" parent="1" source="W0P34Y67IvmdPy3ASIyA-5" target="W0P34Y67IvmdPy3ASIyA-32">
          <mxGeometry width="50" height="50" relative="1" as="geometry">
            <mxPoint x="600" y="470" as="sourcePoint" />
            <mxPoint x="650" y="420" as="targetPoint" />
          </mxGeometry>
        </mxCell>
        <mxCell id="W0P34Y67IvmdPy3ASIyA-86" value="" style="endArrow=none;html=1;rounded=0;entryX=0;entryY=0.75;entryDx=0;entryDy=0;exitX=0.5;exitY=0;exitDx=0;exitDy=0;" edge="1" parent="1" source="W0P34Y67IvmdPy3ASIyA-28" target="W0P34Y67IvmdPy3ASIyA-6">
          <mxGeometry width="50" height="50" relative="1" as="geometry">
            <mxPoint x="790" y="710" as="sourcePoint" />
            <mxPoint x="840" y="660" as="targetPoint" />
          </mxGeometry>
        </mxCell>
        <mxCell id="W0P34Y67IvmdPy3ASIyA-87" value="" style="endArrow=none;html=1;rounded=0;entryX=0.554;entryY=0.99;entryDx=0;entryDy=0;exitX=0.5;exitY=0;exitDx=0;exitDy=0;entryPerimeter=0;" edge="1" parent="1" source="W0P34Y67IvmdPy3ASIyA-29" target="W0P34Y67IvmdPy3ASIyA-97">
          <mxGeometry width="50" height="50" relative="1" as="geometry">
            <mxPoint x="528.3557287525383" y="740.0023304703365" as="sourcePoint" />
            <mxPoint x="571.64" y="702.68" as="targetPoint" />
          </mxGeometry>
        </mxCell>
        <mxCell id="W0P34Y67IvmdPy3ASIyA-88" value="" style="endArrow=none;html=1;rounded=0;entryX=0.5;entryY=1;entryDx=0;entryDy=0;exitX=0.5;exitY=0;exitDx=0;exitDy=0;" edge="1" parent="1" source="W0P34Y67IvmdPy3ASIyA-36" target="W0P34Y67IvmdPy3ASIyA-6">
          <mxGeometry width="50" height="50" relative="1" as="geometry">
            <mxPoint x="890" y="740" as="sourcePoint" />
            <mxPoint x="940" y="690" as="targetPoint" />
          </mxGeometry>
        </mxCell>
        <mxCell id="W0P34Y67IvmdPy3ASIyA-89" value="" style="endArrow=none;html=1;rounded=0;entryX=0;entryY=1;entryDx=0;entryDy=0;" edge="1" parent="1" target="W0P34Y67IvmdPy3ASIyA-39">
          <mxGeometry width="50" height="50" relative="1" as="geometry">
            <mxPoint x="970" y="652" as="sourcePoint" />
            <mxPoint x="990" y="550" as="targetPoint" />
          </mxGeometry>
        </mxCell>
        <mxCell id="W0P34Y67IvmdPy3ASIyA-90" value="" style="endArrow=none;html=1;rounded=0;entryX=0.75;entryY=1;entryDx=0;entryDy=0;" edge="1" parent="1" source="W0P34Y67IvmdPy3ASIyA-37" target="W0P34Y67IvmdPy3ASIyA-6">
          <mxGeometry width="50" height="50" relative="1" as="geometry">
            <mxPoint x="920" y="750" as="sourcePoint" />
            <mxPoint x="970" y="700" as="targetPoint" />
          </mxGeometry>
        </mxCell>
        <mxCell id="W0P34Y67IvmdPy3ASIyA-91" value="" style="endArrow=none;html=1;rounded=0;entryX=1;entryY=0.75;entryDx=0;entryDy=0;exitX=0;exitY=0.5;exitDx=0;exitDy=0;" edge="1" parent="1" source="W0P34Y67IvmdPy3ASIyA-38" target="W0P34Y67IvmdPy3ASIyA-6">
          <mxGeometry width="50" height="50" relative="1" as="geometry">
            <mxPoint x="1040" y="730" as="sourcePoint" />
            <mxPoint x="1090" y="680" as="targetPoint" />
          </mxGeometry>
        </mxCell>
        <mxCell id="W0P34Y67IvmdPy3ASIyA-92" value="" style="endArrow=classic;html=1;rounded=0;entryX=0;entryY=0.5;entryDx=0;entryDy=0;exitX=1;exitY=0.5;exitDx=0;exitDy=0;" edge="1" parent="1" source="W0P34Y67IvmdPy3ASIyA-42" target="W0P34Y67IvmdPy3ASIyA-5">
          <mxGeometry width="50" height="50" relative="1" as="geometry">
            <mxPoint x="407.5" y="415" as="sourcePoint" />
            <mxPoint x="457.5" y="365" as="targetPoint" />
          </mxGeometry>
        </mxCell>
        <mxCell id="W0P34Y67IvmdPy3ASIyA-94" value="" style="endArrow=classic;html=1;rounded=0;entryX=0.5;entryY=0;entryDx=0;entryDy=0;exitX=0.5;exitY=1;exitDx=0;exitDy=0;" edge="1" parent="1" source="W0P34Y67IvmdPy3ASIyA-41" target="W0P34Y67IvmdPy3ASIyA-96">
          <mxGeometry width="50" height="50" relative="1" as="geometry">
            <mxPoint x="50" y="330" as="sourcePoint" />
            <mxPoint x="100" y="280" as="targetPoint" />
          </mxGeometry>
        </mxCell>
        <mxCell id="W0P34Y67IvmdPy3ASIyA-95" value="" style="endArrow=none;html=1;rounded=0;entryX=0;entryY=0.5;entryDx=0;entryDy=0;exitX=0.5;exitY=0;exitDx=0;exitDy=0;" edge="1" parent="1" source="W0P34Y67IvmdPy3ASIyA-41" target="W0P34Y67IvmdPy3ASIyA-1">
          <mxGeometry width="50" height="50" relative="1" as="geometry">
            <mxPoint x="80" y="120" as="sourcePoint" />
            <mxPoint x="130" y="70" as="targetPoint" />
            <Array as="points">
              <mxPoint x="120" y="70" />
            </Array>
          </mxGeometry>
        </mxCell>
        <mxCell id="W0P34Y67IvmdPy3ASIyA-96" value="" style="rounded=0;whiteSpace=wrap;html=1;fillColor=none;" vertex="1" parent="1">
          <mxGeometry x="50" y="350" width="140" height="80" as="geometry" />
        </mxCell>
        <mxCell id="W0P34Y67IvmdPy3ASIyA-97" value="" style="rounded=0;whiteSpace=wrap;html=1;fillColor=none;" vertex="1" parent="1">
          <mxGeometry x="485" y="620" width="140" height="80" as="geometry" />
        </mxCell>
      </root>
    </mxGraphModel>
  </diagram>
</mxfile>
